<svg version="1.1" xmlns="http://www.w3.org/2000/svg" xmlns:xlink="http://www.w3.org/1999/xlink" width="1060" height="552"><defs></defs><g><g transform="translate(-522,-574) scale(1,1)"><rect fill="#C0C0C0" stroke="none" x="963" y="819" width="272" height="130" opacity="0.2"></rect></g><g transform="translate(-522,-574) scale(1,1)"><rect fill="#ffffff" stroke="none" x="956" y="812" width="272" height="130"></rect></g><g transform="translate(-522,-574) scale(1,1)"><path fill="none" stroke="#000000" d="M 956 812 L 1228 812 L 1228 942 L 956 942 L 956 812 Z Z" stroke-miterlimit="10"></path></g><g transform="translate(-522,-574) scale(1,1)"><path fill="none" stroke="#000000" d="M 956 837 L 1228 837" stroke-miterlimit="10"></path></g><g transform="translate(-522,-574) scale(1,1)"><path fill="none" stroke="#000000" d="M 956 875 L 1228 875" stroke-miterlimit="10"></path></g><g transform="translate(-522,-574) scale(1,1)"><g><path fill="none" stroke="none"></path><text fill="#000000" stroke="none" font-family="Arial" font-size="13px" font-style="normal" font-weight="bold" text-decoration="none" x="1065" y="831.5">Object3D</text></g></g><g transform="translate(-522,-574) scale(1,1)"><g><path fill="none" stroke="none"></path><text fill="#000000" stroke="none" font-family="Arial" font-size="13px" font-style="normal" font-weight="normal" text-decoration="none" x="961" y="854.5">-SurfaceAreaMethod surfaceAreaMethod</text></g></g><g transform="translate(-522,-574) scale(1,1)"><g><path fill="none" stroke="none"></path><text fill="#000000" stroke="none" font-family="Arial" font-size="13px" font-style="normal" font-weight="normal" text-decoration="none" x="961" y="869.5">-VolumeMethod volumeMethod</text></g></g><g transform="translate(-522,-574) scale(1,1)"><g><path fill="none" stroke="none"></path><text fill="#000000" stroke="none" font-family="Arial" font-size="13px" font-style="normal" font-weight="normal" text-decoration="none" x="961" y="892.5">+final getSurfaceArea(): double</text></g></g><g transform="translate(-522,-574) scale(1,1)"><g><path fill="none" stroke="none"></path><text fill="#000000" stroke="none" font-family="Arial" font-size="13px" font-style="normal" font-weight="normal" text-decoration="none" x="961" y="907.5">+final getVolume(): double</text></g></g><g transform="translate(-522,-574) scale(1,1)"><g><path fill="none" stroke="none"></path><text fill="#000000" stroke="none" font-family="Arial" font-size="13px" font-style="normal" font-weight="normal" text-decoration="none" x="961" y="922.5">+getVerts(): List&lt;Vertex&gt;</text></g></g><g transform="translate(-522,-574) scale(1,1)"><g><path fill="none" stroke="none"></path><text fill="#000000" stroke="none" font-family="Arial" font-size="13px" font-style="normal" font-weight="normal" text-decoration="none" x="961" y="937.5">+getTris(): List&lt;Triangle&gt;</text></g></g><g transform="translate(-522,-574) scale(1,1)"><rect fill="#C0C0C0" stroke="none" x="563" y="1015" width="271" height="108" opacity="0.2"></rect></g><g transform="translate(-522,-574) scale(1,1)"><rect fill="#ffffff" stroke="none" x="556" y="1008" width="271" height="108"></rect></g><g transform="translate(-522,-574) scale(1,1)"><path fill="none" stroke="#000000" d="M 556 1008 L 827 1008 L 827 1116 L 556 1116 L 556 1008 Z Z" stroke-miterlimit="10"></path></g><g transform="translate(-522,-574) scale(1,1)"><path fill="none" stroke="#000000" d="M 556 1033 L 827 1033" stroke-miterlimit="10"></path></g><g transform="translate(-522,-574) scale(1,1)"><path fill="none" stroke="#000000" d="M 556 1071 L 827 1071" stroke-miterlimit="10"></path></g><g transform="translate(-522,-574) scale(1,1)"><g><path fill="none" stroke="none"></path><text fill="#000000" stroke="none" font-family="Arial" font-size="13px" font-style="normal" font-weight="bold" text-decoration="none" x="675.5" y="1027.5">Mesh</text></g></g><g transform="translate(-522,-574) scale(1,1)"><g><path fill="none" stroke="none"></path><text fill="#000000" stroke="none" font-family="Arial" font-size="13px" font-style="normal" font-weight="normal" text-decoration="none" x="561" y="1050.5">+List&lt;Triangle&gt; tris</text></g></g><g transform="translate(-522,-574) scale(1,1)"><g><path fill="none" stroke="none"></path><text fill="#000000" stroke="none" font-family="Arial" font-size="13px" font-style="normal" font-weight="normal" text-decoration="none" x="561" y="1065.5">+List&lt;Vertex&gt; verts</text></g></g><g transform="translate(-522,-574) scale(1,1)"><g><path fill="none" stroke="none"></path><text fill="#000000" stroke="none" font-family="Arial" font-size="13px" font-style="normal" font-weight="normal" text-decoration="none" x="561" y="1088.5">+void setVerts(List&lt;Vertex&gt; verts)</text></g></g><g transform="translate(-522,-574) scale(1,1)"><g><path fill="none" stroke="none"></path><text fill="#000000" stroke="none" font-family="Arial" font-size="13px" font-style="normal" font-weight="normal" text-decoration="none" x="561" y="1103.5">+void setTris(List&lt;Triangle&gt; tris)</text></g></g><g transform="translate(-522,-574) scale(1,1)"><path fill="none" stroke="#000000" d="M 810 1007 L 955 940" stroke-miterlimit="10"></path></g><g transform="translate(-522,-574) scale(1,1)"><path fill="#FFFFFF" stroke="none" d="M 940.0805418318945 956.1681714479453 L 955 940 L 933.0177262874748 940.8829736279324"></path></g><g transform="translate(-522,-574) scale(1,1)"><path fill="none" stroke="#000000" d="M 940.0805418318945 956.1681714479453 L 955 940 L 933.0177262874748 940.8829736279324 L 940.0805418318945 956.1681714479453" stroke-miterlimit="10"></path></g><g transform="translate(-522,-574) scale(1,1)"><rect fill="#C0C0C0" stroke="none" x="863" y="1015" width="255" height="108" opacity="0.2"></rect></g><g transform="translate(-522,-574) scale(1,1)"><rect fill="#ffffff" stroke="none" x="856" y="1008" width="255" height="108"></rect></g><g transform="translate(-522,-574) scale(1,1)"><path fill="none" stroke="#000000" d="M 856 1008 L 1111 1008 L 1111 1116 L 856 1116 L 856 1008 Z Z" stroke-miterlimit="10"></path></g><g transform="translate(-522,-574) scale(1,1)"><path fill="none" stroke="#000000" d="M 856 1033 L 1111 1033" stroke-miterlimit="10"></path></g><g transform="translate(-522,-574) scale(1,1)"><path fill="none" stroke="#000000" d="M 856 1043 L 1111 1043" stroke-miterlimit="10"></path></g><g transform="translate(-522,-574) scale(1,1)"><g><path fill="none" stroke="none"></path><text fill="#000000" stroke="none" font-family="Arial" font-size="13px" font-style="normal" font-weight="bold" text-decoration="none" x="935" y="1027.5">ParametricCurve</text></g></g><g transform="translate(-522,-574) scale(1,1)"><path fill="none" stroke="#000000" d="M 1015 1007 L 1053 943" stroke-miterlimit="10"></path></g><g transform="translate(-522,-574) scale(1,1)"><path fill="#FFFFFF" stroke="none" d="M 1049.862268902188 964.7750922743813 L 1053 943 L 1035.3839736550192 956.178604471375"></path></g><g transform="translate(-522,-574) scale(1,1)"><path fill="none" stroke="#000000" d="M 1049.862268902188 964.7750922743813 L 1053 943 L 1035.3839736550192 956.178604471375 L 1049.862268902188 964.7750922743813" stroke-miterlimit="10"></path></g><g transform="translate(-522,-574) scale(1,1)"><rect fill="#C0C0C0" stroke="none" x="911" y="607" width="231" height="175" opacity="0.2"></rect></g><g transform="translate(-522,-574) scale(1,1)"><rect fill="#ffffff" stroke="none" x="904" y="600" width="231" height="175"></rect></g><g transform="translate(-522,-574) scale(1,1)"><path fill="none" stroke="#000000" d="M 904 600 L 1135 600 L 1135 775 L 904 775 L 904 600 Z Z" stroke-miterlimit="10"></path></g><g transform="translate(-522,-574) scale(1,1)"><path fill="none" stroke="#000000" d="M 904 625 L 1135 625" stroke-miterlimit="10"></path></g><g transform="translate(-522,-574) scale(1,1)"><path fill="none" stroke="#000000" d="M 904 678 L 1135 678" stroke-miterlimit="10"></path></g><g transform="translate(-522,-574) scale(1,1)"><g><path fill="none" stroke="none"></path><text fill="#000000" stroke="none" font-family="Arial" font-size="13px" font-style="normal" font-weight="bold" text-decoration="none" x="996.5" y="619.5">Triangle</text></g></g><g transform="translate(-522,-574) scale(1,1)"><g><path fill="none" stroke="none"></path><text fill="#000000" stroke="none" font-family="Arial" font-size="13px" font-style="normal" font-weight="normal" text-decoration="none" x="909" y="642.5">-Vertex a</text></g></g><g transform="translate(-522,-574) scale(1,1)"><g><path fill="none" stroke="none"></path><text fill="#000000" stroke="none" font-family="Arial" font-size="13px" font-style="normal" font-weight="normal" text-decoration="none" x="909" y="657.5">-Vertex b</text></g></g><g transform="translate(-522,-574) scale(1,1)"><g><path fill="none" stroke="none"></path><text fill="#000000" stroke="none" font-family="Arial" font-size="13px" font-style="normal" font-weight="normal" text-decoration="none" x="909" y="672.5">-Vertex c</text></g></g><g transform="translate(-522,-574) scale(1,1)"><g><path fill="none" stroke="none"></path><text fill="#000000" stroke="none" font-family="Arial" font-size="13px" font-style="normal" font-weight="normal" text-decoration="none" x="909" y="695.5">+Vertex getA()</text></g></g><g transform="translate(-522,-574) scale(1,1)"><g><path fill="none" stroke="none"></path><text fill="#000000" stroke="none" font-family="Arial" font-size="13px" font-style="normal" font-weight="normal" text-decoration="none" x="909" y="710.5">+Vertex getB()</text></g></g><g transform="translate(-522,-574) scale(1,1)"><g><path fill="none" stroke="none"></path><text fill="#000000" stroke="none" font-family="Arial" font-size="13px" font-style="normal" font-weight="normal" text-decoration="none" x="909" y="725.5">+Vertex getC()</text></g></g><g transform="translate(-522,-574) scale(1,1)"><g><path fill="none" stroke="none"></path><text fill="#000000" stroke="none" font-family="Arial" font-size="13px" font-style="normal" font-weight="normal" text-decoration="none" x="909" y="740.5">+void setA(Vertex v)</text></g></g><g transform="translate(-522,-574) scale(1,1)"><g><path fill="none" stroke="none"></path><text fill="#000000" stroke="none" font-family="Arial" font-size="13px" font-style="normal" font-weight="normal" text-decoration="none" x="909" y="755.5">+void setB(Vertex v)</text></g></g><g transform="translate(-522,-574) scale(1,1)"><g><path fill="none" stroke="none"></path><text fill="#000000" stroke="none" font-family="Arial" font-size="13px" font-style="normal" font-weight="normal" text-decoration="none" x="909" y="770.5">+void setC(Vertex v)</text></g></g><g transform="translate(-522,-574) scale(1,1)"><rect fill="#C0C0C0" stroke="none" x="539" y="591" width="263" height="175" opacity="0.2"></rect></g><g transform="translate(-522,-574) scale(1,1)"><rect fill="#ffffff" stroke="none" x="532" y="584" width="263" height="175"></rect></g><g transform="translate(-522,-574) scale(1,1)"><path fill="none" stroke="#000000" d="M 532 584 L 795 584 L 795 759 L 532 759 L 532 584 Z Z" stroke-miterlimit="10"></path></g><g transform="translate(-522,-574) scale(1,1)"><path fill="none" stroke="#000000" d="M 532 609 L 795 609" stroke-miterlimit="10"></path></g><g transform="translate(-522,-574) scale(1,1)"><path fill="none" stroke="#000000" d="M 532 662 L 795 662" stroke-miterlimit="10"></path></g><g transform="translate(-522,-574) scale(1,1)"><g><path fill="none" stroke="none"></path><text fill="#000000" stroke="none" font-family="Arial" font-size="13px" font-style="normal" font-weight="bold" text-decoration="none" x="644.5" y="603.5">Vertex</text></g></g><g transform="translate(-522,-574) scale(1,1)"><g><path fill="none" stroke="none"></path><text fill="#000000" stroke="none" font-family="Arial" font-size="13px" font-style="normal" font-weight="normal" text-decoration="none" x="537" y="626.5">-double x</text></g></g><g transform="translate(-522,-574) scale(1,1)"><g><path fill="none" stroke="none"></path><text fill="#000000" stroke="none" font-family="Arial" font-size="13px" font-style="normal" font-weight="normal" text-decoration="none" x="537" y="641.5">-double y</text></g></g><g transform="translate(-522,-574) scale(1,1)"><g><path fill="none" stroke="none"></path><text fill="#000000" stroke="none" font-family="Arial" font-size="13px" font-style="normal" font-weight="normal" text-decoration="none" x="537" y="656.5">-double z</text></g></g><g transform="translate(-522,-574) scale(1,1)"><g><path fill="none" stroke="none"></path><text fill="#000000" stroke="none" font-family="Arial" font-size="13px" font-style="normal" font-weight="normal" text-decoration="none" x="537" y="679.5">+double getX()</text></g></g><g transform="translate(-522,-574) scale(1,1)"><g><path fill="none" stroke="none"></path><text fill="#000000" stroke="none" font-family="Arial" font-size="13px" font-style="normal" font-weight="normal" text-decoration="none" x="537" y="694.5">+double getY()</text></g></g><g transform="translate(-522,-574) scale(1,1)"><g><path fill="none" stroke="none"></path><text fill="#000000" stroke="none" font-family="Arial" font-size="13px" font-style="normal" font-weight="normal" text-decoration="none" x="537" y="709.5">+double getZ()</text></g></g><g transform="translate(-522,-574) scale(1,1)"><g><path fill="none" stroke="none"></path><text fill="#000000" stroke="none" font-family="Arial" font-size="13px" font-style="normal" font-weight="normal" text-decoration="none" x="537" y="724.5">+void setX(double in)</text></g></g><g transform="translate(-522,-574) scale(1,1)"><g><path fill="none" stroke="none"></path><text fill="#000000" stroke="none" font-family="Arial" font-size="13px" font-style="normal" font-weight="normal" text-decoration="none" x="537" y="739.5">+void setY(double in)</text></g></g><g transform="translate(-522,-574) scale(1,1)"><g><path fill="none" stroke="none"></path><text fill="#000000" stroke="none" font-family="Arial" font-size="13px" font-style="normal" font-weight="normal" text-decoration="none" x="537" y="754.5">+void setZ(double in)</text></g></g><g transform="translate(-522,-574) scale(1,1)"><path fill="none" stroke="#000000" d="M 1067 811 L 1053 776" stroke-miterlimit="10"></path></g><g transform="translate(-522,-574) scale(1,1)"><path fill="none" stroke="#000000" d="M 1060.6827618052685 783.8724310758183 L 1053 776 L 1052.8658835726114 786.9991823688811" stroke-miterlimit="10"></path></g><g transform="translate(-522,-574) scale(1,1)"><path fill="none" stroke="#000000" d="M 903 682 L 796 677" stroke-miterlimit="10"></path></g><g transform="translate(-522,-574) scale(1,1)"><path fill="none" stroke="#000000" d="M 806.3480894280932 673.2694443861288 L 796 677 L 805.9551053790914 681.6793030347677" stroke-miterlimit="10"></path></g><g transform="translate(-522,-574) scale(1,1)"><path fill="none" stroke="#000000" d="M 955 811 L 796 735" stroke-miterlimit="10"></path></g><g transform="translate(-522,-574) scale(1,1)"><path fill="none" stroke="#000000" d="M 806.9844467675715 735.5847471337149 L 796 735 L 803.3536981334032 743.1806554604617" stroke-miterlimit="10"></path></g><g transform="translate(-522,-574) scale(1,1)"><rect fill="#C0C0C0" stroke="none" x="1339" y="787" width="240" height="95" opacity="0.2"></rect></g><g transform="translate(-522,-574) scale(1,1)"><rect fill="#ffffff" stroke="none" x="1332" y="780" width="240" height="95"></rect></g><g transform="translate(-522,-574) scale(1,1)"><path fill="none" stroke="#000000" d="M 1332 780 L 1572 780 L 1572 875 L 1332 875 L 1332 780 Z Z" stroke-miterlimit="10"></path></g><g transform="translate(-522,-574) scale(1,1)"><path fill="none" stroke="#000000" d="M 1332 805 L 1572 805" stroke-miterlimit="10"></path></g><g transform="translate(-522,-574) scale(1,1)"><path fill="none" stroke="#000000" d="M 1332 815 L 1572 815" stroke-miterlimit="10"></path></g><g transform="translate(-522,-574) scale(1,1)"><g><path fill="none" stroke="none"></path><text fill="#000000" stroke="none" font-family="Arial" font-size="13px" font-style="normal" font-weight="bold" text-decoration="none" x="1359" y="799.5">SurfaceAreaMethod &lt;Interface&gt;</text></g></g><g transform="translate(-522,-574) scale(1,1)"><g><path fill="none" stroke="none"></path><text fill="#000000" stroke="none" font-family="Arial" font-size="13px" font-style="normal" font-weight="normal" text-decoration="none" x="1337" y="832.5">+double getSurfaceArea(Object3D obj)</text></g></g><g transform="translate(-522,-574) scale(1,1)"><rect fill="#C0C0C0" stroke="none" x="1339" y="915" width="236" height="79" opacity="0.2"></rect></g><g transform="translate(-522,-574) scale(1,1)"><rect fill="#ffffff" stroke="none" x="1332" y="908" width="236" height="79"></rect></g><g transform="translate(-522,-574) scale(1,1)"><path fill="none" stroke="#000000" d="M 1332 908 L 1568 908 L 1568 987 L 1332 987 L 1332 908 Z Z" stroke-miterlimit="10"></path></g><g transform="translate(-522,-574) scale(1,1)"><path fill="none" stroke="#000000" d="M 1332 933 L 1568 933" stroke-miterlimit="10"></path></g><g transform="translate(-522,-574) scale(1,1)"><path fill="none" stroke="#000000" d="M 1332 943 L 1568 943" stroke-miterlimit="10"></path></g><g transform="translate(-522,-574) scale(1,1)"><g><path fill="none" stroke="none"></path><text fill="#000000" stroke="none" font-family="Arial" font-size="13px" font-style="normal" font-weight="bold" text-decoration="none" x="1371" y="927.5">VolumeMethod &lt;Interface&gt;</text></g></g><g transform="translate(-522,-574) scale(1,1)"><g><path fill="none" stroke="none"></path><text fill="#000000" stroke="none" font-family="Arial" font-size="13px" font-style="normal" font-weight="normal" text-decoration="none" x="1337" y="960.5">+double getVolume(Object3D obj)</text></g></g><g transform="translate(-522,-574) scale(1,1)"><path fill="none" stroke="#000000" d="M 1331 844 L 1229 858" stroke-miterlimit="10"></path></g><g transform="translate(-522,-574) scale(1,1)"><path fill="none" stroke="#000000" d="M 1238.4958693494764 852.4476612767525 L 1229 858 L 1239.6406899729293 860.7884972476232" stroke-miterlimit="10"></path></g><g transform="translate(-522,-574) scale(1,1)"><path fill="none" stroke="#000000" d="M 1331 924 L 1229 904" stroke-miterlimit="10"></path></g><g transform="translate(-522,-574) scale(1,1)"><path fill="none" stroke="#000000" d="M 1239.7827446602043 901.8245879487241 L 1229 904 L 1238.1628004823656 910.0863032557013" stroke-miterlimit="10"></path></g></g></svg>